<?xml version="1.0" standalone="no"?>
<!DOCTYPE svg PUBLIC "-//W3C//DTD SVG 20010904//EN"
 "http://www.w3.org/TR/2001/REC-SVG-20010904/DTD/svg10.dtd">
<svg version="1.0" xmlns="http://www.w3.org/2000/svg"
 width="443.000000pt" height="443.000000pt" viewBox="0 0 443.000000 443.000000"
 preserveAspectRatio="xMidYMid meet">
<metadata>
Created by potrace 1.11, written by Peter Selinger 2001-2013
</metadata>
<g transform="translate(0.000000,443.000000) scale(0.100000,-0.100000)"
fill="#000000" stroke="none">
<path d="M1852 4240 c-460 -48 -894 -250 -1226 -569 -86 -83 -200 -219 -266
-317 -40 -59 -66 -84 -119 -118 -37 -24 -84 -58 -104 -76 -34 -29 -37 -37 -37
-84 0 -29 7 -76 16 -105 15 -52 15 -56 -10 -135 -74 -234 -91 -349 -91 -621 0
-195 4 -248 23 -346 41 -219 124 -464 209 -617 314 -570 854 -948 1498 -1048
147 -23 440 -23 585 0 658 104 1207 495 1514 1078 61 116 130 295 158 409 l23
97 60 17 c33 9 122 40 197 68 l138 51 0 75 c0 268 -137 1065 -261 1524 -68
254 -120 383 -168 424 -30 26 -198 98 -263 112 -79 18 -282 -16 -507 -83
l-113 -35 -97 54 c-195 108 -418 186 -641 224 -142 25 -391 34 -518 21z m723
-265 c67 -18 155 -63 207 -105 76 -63 222 -404 289 -675 30 -121 79 -388 79
-428 0 -16 -14 -30 -53 -51 -184 -101 -298 -241 -323 -394 -5 -34 -12 -41 -62
-67 -31 -16 -80 -52 -110 -80 -47 -44 -54 -56 -56 -90 -1 -36 2 -42 34 -58 27
-14 54 -17 122 -15 l87 3 18 -40 c42 -92 175 -194 330 -251 l70 -26 6 -111 5
-111 -38 -56 c-86 -126 -228 -265 -365 -357 -72 -49 -235 -137 -241 -130 -2 2
14 43 35 93 21 49 51 126 66 172 26 81 27 84 9 104 -54 59 -210 117 -334 125
l-85 5 -53 -121 c-67 -152 -124 -313 -148 -414 l-18 -79 -63 6 c-35 3 -92 9
-128 12 -36 4 -65 10 -65 13 0 4 20 68 44 142 89 272 190 724 165 740 -21 13
-258 22 -373 15 -61 -4 -149 -14 -196 -22 -93 -16 -260 -61 -273 -73 -5 -5 17
-89 47 -187 59 -193 126 -423 126 -436 0 -24 -166 96 -263 191 -55 52 -162
182 -201 243 -17 26 -16 31 33 200 69 238 75 253 97 251 11 -1 64 -7 119 -13
272 -30 497 65 637 267 44 64 103 196 127 283 17 62 29 82 68 122 34 34 44 51
36 59 -8 8 -24 -2 -57 -34 -25 -25 -61 -50 -79 -56 -124 -40 -391 -53 -542
-26 -44 8 -126 28 -181 46 l-101 31 -66 -26 c-112 -45 -223 -67 -365 -73
l-133 -6 -55 59 c-157 169 -306 464 -280 556 16 57 199 163 345 199 74 19 103
21 230 16 80 -4 161 -9 178 -13 26 -5 33 -3 33 9 0 11 -17 19 -60 28 -33 6
-60 15 -60 18 0 4 23 47 51 96 145 253 335 428 534 491 97 31 225 33 314 5 72
-22 184 -87 224 -129 l28 -30 -43 -35 c-53 -43 -222 -232 -226 -254 -8 -33 30
-4 113 90 278 314 549 444 790 382z m-1448 -1445 c148 -48 265 -63 433 -57 80
3 178 13 219 22 40 9 76 13 79 10 4 -3 -9 -51 -27 -106 -120 -353 -370 -514
-731 -470 -178 22 -264 87 -349 264 -42 87 -100 264 -89 271 2 1 37 8 78 14
41 7 85 14 96 18 17 5 30 -5 65 -50 23 -30 46 -53 50 -51 4 3 20 41 35 85 16
44 33 80 38 80 5 0 51 -14 103 -30z m-157 -50 c-12 -33 -25 -60 -29 -60 -8 0
-64 80 -59 85 6 7 103 42 107 39 2 -2 -6 -30 -19 -64z m2228 -295 c5 -126 8
-231 6 -233 -3 -5 -125 58 -156 81 -35 26 -35 30 2 44 17 6 30 19 30 28 0 12
-5 15 -17 10 -151 -63 -422 -92 -478 -51 -16 12 -16 15 -1 44 34 67 198 159
346 195 48 12 88 26 88 30 0 15 55 68 107 103 l50 34 7 -27 c4 -16 11 -131 16
-258z m-2678 266 c0 -5 -3 -17 -6 -26 -6 -14 -8 -14 -25 1 -26 23 -24 34 6 34
14 0 25 -4 25 -9z m229 -312 c17 -28 31 -54 31 -58 0 -11 -121 -63 -129 -55
-8 8 -14 322 -6 342 4 11 18 -17 39 -81 18 -53 47 -120 65 -148z m173 -195
c63 -33 19 -54 -109 -54 -107 1 -178 11 -196 29 -20 20 5 44 92 88 l83 43 51
-46 c28 -25 63 -52 79 -60z m4 -89 c-2 -5 -26 -83 -52 -173 l-49 -162 -37 73
c-35 71 -108 248 -108 264 0 5 56 8 125 8 79 0 124 -4 121 -10z m985 -141 l66
-7 -19 -106 c-27 -154 -100 -445 -153 -606 -26 -77 -48 -142 -51 -144 -15 -15
-350 105 -374 134 -5 7 -28 79 -51 161 -22 82 -65 225 -94 317 l-53 168 24 10
c67 25 225 57 359 73 55 6 279 6 346 0z m1399 -71 c-1 -5 -14 -33 -29 -63
l-29 -55 -4 55 c-2 30 -3 58 -1 63 2 4 17 7 34 7 16 0 29 -3 29 -7z m-2651
-189 c26 -33 27 -76 2 -98 -18 -17 -20 -17 -29 0 -7 12 -6 23 1 35 14 23 2 49
-24 49 -25 0 -126 -59 -134 -79 -3 -8 -3 -22 1 -33 4 -15 13 -18 37 -16 28 3
32 7 30 30 -2 35 22 43 41 13 22 -34 20 -43 -16 -65 -55 -33 -100 -25 -124 22
-25 48 -11 74 64 123 80 53 120 58 151 19z m1766 -66 c4 -4 -12 -34 -34 -67
-44 -64 -47 -71 -31 -71 5 0 29 29 52 65 24 35 46 65 50 65 4 0 18 -4 31 -9
l24 -9 -18 -84 c-22 -101 -22 -98 -5 -98 9 0 17 24 26 74 17 98 19 102 61 81
19 -10 46 -26 61 -37 l27 -19 -35 -102 c-20 -56 -54 -141 -76 -188 l-40 -87
-91 -25 c-100 -28 -175 -42 -279 -53 -81 -8 -79 -13 -42 112 34 121 66 208
127 348 l51 118 68 -4 c37 -2 70 -6 73 -10z m-1711 -159 c29 -14 52 -61 39
-82 -9 -16 -107 -97 -117 -97 -14 0 -65 66 -66 84 -1 54 74 75 108 31 17 -21
21 -23 32 -10 15 18 6 45 -14 45 -15 0 -28 24 -19 34 8 8 8 8 37 -5z m185
-123 c9 -10 8 -16 -4 -26 -9 -7 -13 -21 -10 -31 6 -18 -2 -23 -30 -20 -6 0
-28 -13 -48 -30 -26 -21 -37 -38 -35 -52 5 -33 -30 -35 -38 -2 -6 23 1 34 42
76 26 27 44 49 40 49 -5 0 -3 7 4 15 7 8 16 13 20 10 4 -3 13 2 20 10 15 19
24 19 39 1z m95 -167 c37 -29 34 -66 -10 -117 -27 -32 -43 -42 -65 -42 -32 0
-69 30 -69 56 0 38 73 124 105 124 7 0 24 -9 39 -21z m148 -112 c7 -7 26 -18
42 -25 23 -10 26 -15 16 -27 -9 -11 -16 -12 -30 -3 -26 17 -47 4 -81 -52 -30
-49 -56 -61 -53 -26 2 14 82 146 89 146 2 0 10 -6 17 -13z m177 -16 c15 -10
15 -11 -16 -151 -4 -17 10 -5 47 43 29 37 54 67 57 67 2 0 13 -5 24 -10 17
-10 12 -19 -67 -115 -76 -92 -89 -103 -106 -94 -14 8 -18 17 -14 37 3 15 13
68 21 117 22 125 22 126 54 106z m245 -93 c59 -17 76 -34 76 -80 0 -36 -20
-69 -48 -79 -7 -3 -7 -21 -1 -58 6 -29 9 -55 7 -57 -2 -2 -14 -1 -26 2 -15 5
-23 16 -27 43 -16 99 -27 106 -45 31 -11 -45 -15 -50 -34 -44 -11 4 -22 7 -23
8 -6 5 63 246 71 246 5 0 27 -5 50 -12z"/>
<path d="M2085 3413 c-16 -8 -45 -29 -63 -47 -38 -34 -122 -148 -122 -163 0
-11 67 -50 73 -43 2 3 19 27 37 54 75 111 144 152 183 108 27 -29 65 -121 78
-189 l13 -64 40 7 c23 3 43 8 45 10 3 2 -4 39 -13 81 -24 101 -81 211 -125
240 -40 27 -101 30 -146 6z"/>
<path d="M813 3020 c-32 -13 -55 -54 -51 -92 4 -42 38 -54 38 -14 0 17 14 40
39 65 48 48 37 66 -26 41z"/>
<path d="M1856 1429 c-70 -20 -281 -39 -424 -39 -125 0 -153 -2 -143 -12 21
-22 332 -14 476 11 112 20 148 32 128 43 -4 3 -21 2 -37 -3z"/>
<path d="M1808 1164 c-16 -15 -197 -34 -315 -33 -138 1 -175 -10 -82 -24 122
-19 443 22 423 54 -6 10 -18 12 -26 3z"/>
<path d="M614 1145 c-14 -35 13 -56 46 -35 12 7 12 12 -4 29 -23 25 -35 26
-42 6z"/>
<path d="M921 888 c-33 -36 -37 -48 -20 -65 16 -16 37 -5 64 35 18 27 22 39
13 49 -16 19 -24 16 -57 -19z"/>
<path d="M1535 651 c-9 -28 1 -41 31 -41 22 0 25 4 22 28 -4 34 -43 44 -53 13z"/>
</g>
</svg>
